<?xml version="1.0" encoding="UTF-8"?>
<svg xmlns="http://www.w3.org/2000/svg"
     width="1136" height="1144"
     viewBox="0 0 1136 1144">
  <path d="M 523,818 L 519,827 L 516,841 L 514,843 L 515,844 L 510,860 L 500,878 L 492,888 L 434,933 L 431,934 L 420,944 L 397,933 L 391,966 L 391,1006 L 395,1032 L 406,1068 L 418,1091 L 439,1116 L 458,1130 L 477,1136 L 497,1137 L 509,1134 L 520,1129 L 535,1119 L 553,1101 L 563,1088 L 580,1058 L 594,1026 L 594,1022 L 602,1002 L 619,933 L 618,924 L 600,898 L 599,889 L 595,879 L 595,829 Z M 285,533 L 232,533 L 229,531 L 211,528 L 189,513 L 132,529 L 106,539 L 77,553 L 53,568 L 39,579 L 27,591 L 16,606 L 10,618 L 6,634 L 7,656 L 15,676 L 27,692 L 43,706 L 57,715 L 81,726 L 100,732 L 127,737 L 170,738 L 186,736 L 169,706 L 230,629 L 252,616 L 268,612 L 271,610 L 275,610 L 284,606 L 288,606 L 297,602 Z M 595,399 L 575,402 L 554,409 L 540,416 L 526,426 L 514,437 L 502,452 L 489,477 L 484,496 L 482,520 L 485,542 L 491,561 L 505,586 L 526,608 L 545,621 L 572,632 L 598,636 L 613,636 L 641,631 L 659,624 L 680,611 L 699,593 L 708,581 L 719,559 L 725,534 L 726,512 L 722,487 L 717,473 L 706,453 L 688,432 L 668,417 L 642,405 L 618,400 Z M 992,389 L 979,406 L 959,418 L 929,428 L 912,432 L 912,439 L 915,450 L 917,468 L 919,472 L 918,475 L 920,478 L 923,502 L 975,502 L 979,504 L 989,505 L 992,507 L 997,507 L 1071,554 L 1075,558 L 1077,558 L 1080,561 L 1073,612 L 1070,616 L 1065,618 L 1061,618 L 1058,620 L 1054,620 L 1051,622 L 1047,622 L 1001,636 L 1000,635 L 980,642 L 963,640 L 959,641 L 947,639 L 945,637 L 943,638 L 965,688 L 1011,810 L 1041,874 L 1056,899 L 1073,921 L 1089,936 L 1096,940 L 1101,940 L 1108,934 L 1113,924 L 1120,897 L 1125,856 L 1127,805 L 1126,755 L 1123,710 L 1117,656 L 1110,613 L 1103,579 L 1091,534 L 1077,494 L 1059,456 L 1048,438 L 1035,421 L 1011,399 Z M 1073,72 L 1060,64 L 1046,60 L 1024,59 L 1001,62 L 977,68 L 945,79 L 917,91 L 898,103 L 887,112 L 868,132 L 840,170 L 838,189 L 839,204 L 837,215 L 828,236 L 800,273 L 852,323 L 888,296 L 915,284 L 920,285 L 936,283 L 941,284 L 957,282 L 982,282 L 1002,274 L 1026,260 L 1038,249 L 1055,224 L 1072,192 L 1085,157 L 1090,133 L 1090,107 L 1086,91 L 1080,80 Z M 167,21 L 167,26 L 169,30 L 189,53 L 206,67 L 233,85 L 294,117 L 429,176 L 480,203 L 472,182 L 470,153 L 472,150 L 472,146 L 478,129 L 478,124 L 488,93 L 493,70 L 497,64 L 551,56 L 555,60 L 608,136 L 614,161 L 614,207 L 686,217 L 698,176 L 711,154 L 705,140 L 693,123 L 675,105 L 642,82 L 609,65 L 588,56 L 545,41 L 502,29 L 446,17 L 388,8 L 340,3 L 281,0 L 233,1 L 199,5 L 178,11 L 171,15 Z" fill="#f6f6f6" fill-rule="evenodd"/>
</svg>
