<?xml version="1.0" encoding="UTF-8"?>
<svg xmlns="http://www.w3.org/2000/svg"
     width="1136" height="1144"
     viewBox="0 0 1136 1144">
  <path d="M 509,80 L 507,91 L 505,94 L 505,98 L 503,101 L 503,105 L 501,108 L 501,112 L 499,115 L 498,123 L 488,156 L 490,174 L 489,178 L 510,233 L 507,237 L 419,281 L 408,268 L 384,234 L 364,218 L 295,195 L 290,192 L 287,192 L 264,215 L 267,226 L 294,293 L 308,308 L 354,338 L 358,342 L 351,356 L 348,359 L 312,431 L 256,413 L 231,411 L 202,420 L 201,419 L 188,424 L 187,423 L 184,425 L 173,427 L 170,429 L 166,429 L 163,431 L 159,431 L 153,433 L 152,435 L 151,448 L 149,452 L 150,455 L 148,459 L 149,462 L 147,466 L 213,509 L 223,513 L 233,514 L 236,516 L 300,516 L 315,606 L 317,610 L 317,613 L 314,616 L 259,632 L 242,642 L 190,707 L 206,737 L 237,735 L 248,736 L 264,734 L 275,735 L 285,733 L 289,734 L 299,729 L 302,729 L 306,726 L 309,726 L 344,699 L 358,690 L 431,760 L 431,762 L 396,808 L 387,830 L 388,851 L 386,874 L 386,909 L 417,924 L 482,873 L 493,855 L 499,832 L 502,826 L 502,822 L 508,806 L 508,802 L 510,799 L 517,799 L 611,813 L 613,815 L 612,871 L 619,896 L 665,961 L 680,959 L 684,957 L 687,958 L 690,956 L 693,957 L 700,954 L 707,924 L 709,921 L 717,888 L 721,878 L 719,868 L 719,857 L 708,829 L 706,820 L 701,810 L 701,806 L 699,804 L 700,799 L 719,789 L 724,788 L 727,785 L 787,755 L 790,755 L 795,760 L 825,802 L 844,817 L 873,826 L 921,844 L 945,820 L 915,743 L 900,727 L 853,696 L 851,692 L 867,663 L 889,617 L 897,604 L 952,622 L 965,624 L 979,624 L 982,622 L 987,622 L 989,620 L 993,620 L 1003,616 L 1008,616 L 1011,614 L 1056,602 L 1061,569 L 989,523 L 970,519 L 942,519 L 911,521 L 909,519 L 907,514 L 908,512 L 904,497 L 905,495 L 903,491 L 900,467 L 898,463 L 895,446 L 896,444 L 892,428 L 892,421 L 895,419 L 906,417 L 911,414 L 947,404 L 968,392 L 1015,333 L 1018,327 L 1002,298 L 977,300 L 966,299 L 950,301 L 939,300 L 928,302 L 919,301 L 898,310 L 855,343 L 850,345 L 794,292 L 777,274 L 810,231 L 821,206 L 821,157 L 823,135 L 822,126 L 796,113 L 789,113 L 726,163 L 715,181 L 710,201 L 704,217 L 704,221 L 702,223 L 702,227 L 700,230 L 700,234 L 697,237 L 597,222 L 595,219 L 596,162 L 594,152 L 592,149 L 592,144 L 589,138 L 544,75 L 542,74 L 538,76 Z M 605,396 L 615,398 L 618,397 L 622,399 L 625,398 L 629,400 L 638,401 L 643,404 L 647,404 L 666,413 L 687,428 L 704,446 L 718,469 L 726,492 L 725,494 L 727,497 L 727,508 L 729,514 L 729,523 L 727,531 L 728,534 L 726,538 L 727,540 L 721,561 L 709,584 L 695,601 L 679,615 L 663,625 L 660,625 L 657,628 L 637,635 L 610,639 L 592,637 L 589,638 L 585,636 L 582,637 L 579,635 L 574,635 L 571,633 L 567,633 L 565,631 L 561,631 L 542,622 L 521,607 L 505,590 L 494,573 L 485,552 L 481,536 L 482,534 L 480,530 L 480,506 L 485,481 L 494,460 L 508,440 L 531,419 L 550,408 L 572,400 Z" fill="#edcb24" fill-rule="evenodd"/>
</svg>
