<?xml version="1.0" encoding="UTF-8"?>
<svg xmlns="http://www.w3.org/2000/svg"
     width="1136" height="1144"
     viewBox="0 0 1136 1144">
  <path d="M 545,59 L 497,67 L 486,110 L 479,130 L 480,131 L 476,142 L 476,146 L 472,156 L 475,183 L 484,205 L 481,205 L 489,226 L 478,233 L 426,259 L 422,258 L 396,222 L 376,205 L 346,195 L 338,191 L 334,191 L 332,189 L 318,184 L 314,184 L 312,182 L 298,177 L 294,177 L 286,173 L 282,173 L 273,183 L 260,194 L 246,208 L 244,214 L 249,224 L 258,250 L 260,252 L 261,258 L 264,262 L 264,265 L 269,275 L 272,286 L 275,290 L 277,298 L 296,320 L 328,342 L 330,342 L 335,346 L 335,349 L 313,393 L 302,411 L 293,407 L 276,403 L 274,401 L 259,396 L 256,397 L 253,395 L 249,396 L 240,394 L 230,394 L 138,420 L 135,430 L 135,441 L 133,444 L 129,475 L 182,509 L 192,512 L 211,525 L 232,529 L 235,531 L 287,531 L 300,603 L 287,609 L 254,618 L 229,633 L 220,646 L 216,649 L 215,652 L 173,704 L 173,707 L 189,736 L 188,740 L 196,754 L 260,751 L 265,752 L 274,750 L 291,751 L 320,739 L 344,720 L 357,712 L 409,762 L 399,777 L 387,791 L 385,796 L 381,799 L 378,809 L 371,823 L 371,859 L 369,869 L 370,896 L 368,911 L 369,919 L 374,922 L 377,922 L 388,929 L 393,931 L 399,931 L 419,941 L 457,911 L 460,910 L 495,881 L 507,861 L 509,851 L 511,849 L 511,845 L 513,842 L 513,838 L 515,836 L 516,828 L 522,815 L 596,826 L 598,828 L 597,876 L 599,879 L 603,900 L 622,926 L 622,930 L 656,978 L 660,979 L 667,978 L 670,976 L 673,977 L 686,975 L 690,973 L 692,974 L 697,972 L 713,970 L 728,917 L 727,916 L 729,913 L 729,909 L 738,881 L 736,866 L 737,862 L 735,859 L 736,854 L 723,817 L 721,815 L 720,809 L 723,806 L 781,777 L 785,776 L 812,813 L 834,831 L 850,837 L 854,837 L 859,840 L 860,839 L 862,841 L 879,847 L 880,846 L 890,851 L 900,853 L 910,858 L 920,860 L 925,863 L 965,823 L 930,734 L 911,714 L 877,692 L 873,687 L 905,625 L 925,630 L 934,634 L 938,634 L 940,636 L 941,634 L 957,638 L 979,639 L 991,635 L 992,636 L 994,634 L 999,634 L 1001,632 L 1006,632 L 1008,630 L 1013,630 L 1016,628 L 1034,624 L 1037,622 L 1041,622 L 1044,620 L 1048,620 L 1051,618 L 1055,618 L 1058,616 L 1062,616 L 1065,614 L 1069,614 L 1071,608 L 1070,605 L 1072,601 L 1071,598 L 1073,594 L 1072,591 L 1074,588 L 1073,585 L 1075,581 L 1074,578 L 1077,562 L 997,510 L 975,506 L 972,504 L 927,506 L 922,505 L 920,500 L 918,482 L 916,478 L 917,475 L 915,472 L 913,454 L 911,450 L 912,448 L 908,433 L 913,429 L 933,424 L 935,422 L 946,420 L 959,415 L 977,404 L 990,388 L 994,387 L 998,380 L 1002,377 L 1013,361 L 1017,358 L 1028,344 L 1028,342 L 1038,331 L 1036,324 L 1032,319 L 1013,282 L 997,281 L 988,283 L 985,282 L 977,285 L 974,284 L 958,286 L 947,285 L 915,287 L 895,296 L 892,296 L 852,326 L 797,273 L 820,241 L 823,239 L 835,213 L 837,183 L 836,174 L 839,168 L 838,149 L 840,140 L 840,116 L 820,106 L 817,106 L 793,93 L 788,92 L 777,102 L 774,103 L 713,151 L 713,156 L 702,173 L 693,205 L 691,208 L 691,212 L 687,220 L 617,210 L 611,208 L 611,159 L 609,155 L 608,146 L 606,143 L 606,138 L 551,59 Z M 509,77 L 545,72 L 593,140 L 596,150 L 595,151 L 599,161 L 599,219 L 695,234 L 698,231 L 713,179 L 724,161 L 789,110 L 793,109 L 820,122 L 825,126 L 825,159 L 823,175 L 824,202 L 823,209 L 815,228 L 780,274 L 785,280 L 851,342 L 899,307 L 918,299 L 928,298 L 939,299 L 949,297 L 987,297 L 1002,295 L 1006,299 L 1021,328 L 973,390 L 965,397 L 949,406 L 933,410 L 930,412 L 926,412 L 924,414 L 920,414 L 910,418 L 906,418 L 904,420 L 894,423 L 911,517 L 942,518 L 967,516 L 992,521 L 1063,567 L 1063,576 L 1061,580 L 1062,583 L 1060,587 L 1061,590 L 1059,593 L 1060,597 L 1058,600 L 1059,602 L 1057,604 L 978,627 L 968,627 L 959,625 L 955,626 L 898,607 L 878,647 L 875,650 L 861,680 L 858,683 L 858,686 L 854,693 L 903,726 L 918,743 L 948,820 L 922,846 L 867,828 L 857,823 L 847,821 L 839,817 L 823,803 L 789,757 L 703,800 L 702,806 L 705,810 L 710,827 L 716,840 L 716,844 L 721,854 L 723,867 L 723,881 L 719,891 L 718,899 L 716,901 L 716,906 L 707,934 L 707,938 L 705,941 L 705,945 L 703,948 L 702,956 L 697,959 L 694,958 L 690,960 L 687,959 L 683,961 L 664,963 L 615,895 L 610,875 L 610,816 L 513,801 L 510,805 L 510,809 L 499,841 L 497,852 L 486,872 L 479,879 L 420,925 L 415,926 L 411,923 L 402,920 L 386,912 L 383,909 L 385,867 L 384,849 L 386,833 L 385,827 L 394,806 L 397,804 L 429,761 L 358,693 L 348,699 L 313,726 L 292,736 L 286,737 L 275,736 L 265,738 L 254,737 L 239,739 L 227,738 L 208,740 L 202,736 L 190,711 L 187,708 L 240,640 L 257,630 L 315,613 L 313,610 L 311,592 L 309,587 L 310,585 L 308,582 L 307,568 L 305,565 L 306,562 L 304,559 L 302,540 L 300,536 L 301,534 L 299,531 L 297,517 L 238,519 L 230,516 L 219,515 L 149,471 L 145,467 L 145,461 L 147,458 L 146,455 L 148,452 L 147,448 L 151,431 L 178,423 L 179,424 L 185,421 L 186,422 L 189,420 L 193,420 L 196,418 L 200,418 L 203,416 L 207,416 L 210,414 L 214,414 L 217,412 L 221,412 L 224,410 L 228,410 L 231,408 L 248,410 L 252,409 L 293,422 L 295,424 L 299,424 L 301,426 L 311,428 L 353,346 L 354,342 L 351,339 L 308,311 L 291,293 L 277,259 L 276,253 L 268,236 L 265,225 L 263,223 L 261,214 L 282,193 L 289,189 L 297,193 L 301,193 L 312,198 L 315,198 L 317,200 L 329,203 L 331,205 L 335,205 L 337,207 L 341,207 L 351,212 L 355,212 L 357,214 L 366,216 L 386,233 L 419,278 L 504,236 L 507,233 L 493,197 L 490,185 L 487,180 L 485,158 L 491,134 L 493,131 L 494,123 L 496,121 L 496,116 L 498,114 L 497,113 L 505,88 L 505,84 Z" fill="#000000" fill-rule="evenodd"/>
</svg>
